# xmcd
#
# Track frame offsets:
#	150
#	18625
#	44192
#
# Disc length: 834 seconds
#
# Revision: 5
# Processed by: cddbd v1.5PL3 Copyright (c) Steve Scherf et al.
# Submitted via: CDex 1.50Beta5
#
DISCID=26034003
DTITLE=JUDY AND MARY - 手紙をかくよ
DYEAR=1998
DGENRE=Pop
TTITLE0=手紙をかくよ
TTITLE1=帰れない2人(アフリカン カジュアル ヴァージョン)
TTITLE2=手紙をかくよ(Backing Track)
EXTD=
EXTT0=
EXTT1=
EXTT2=
PLAYORDER=
